M48
; DRILL file {KiCad 7.0.1} date Sat Nov 18 18:03:46 2023
; FORMAT={-:-/ absolute / metric / decimal}
; #@! TF.CreationDate,2023-11-18T18:03:46+02:00
; #@! TF.GenerationSoftware,Kicad,Pcbnew,7.0.1
; #@! TF.FileFunction,Plated,1,2,PTH
FMAT,2
METRIC
; #@! TA.AperFunction,Plated,PTH,ViaDrill
T1C0.400
; #@! TA.AperFunction,Plated,PTH,ComponentDrill
T2C0.900
; #@! TA.AperFunction,Plated,PTH,ComponentDrill
T3C1.200
; #@! TA.AperFunction,Plated,PTH,ComponentDrill
T4C1.300
%
G90
G05
T1
X110.2Y-98.0
X113.0Y-118.5
X113.275Y-100.5
X116.6Y-105.0
X116.6Y-133.2
X119.0Y-118.5
X119.1Y-94.1
X120.0Y-129.0
X123.1Y-93.9
X123.2Y-89.0
X125.3Y-74.3
X127.0Y-105.6
X127.9Y-96.4
X128.137Y-100.6
X129.1Y-109.1
X131.4Y-104.4
X131.9Y-102.0
X133.3Y-107.8
X133.8Y-103.5
X134.7Y-74.3
X134.9Y-105.8
X136.6Y-92.1
X136.6Y-97.2
X136.7Y-104.7
X136.7Y-115.4
X136.75Y-107.8
X137.8Y-77.8
X139.1Y-110.3
X140.2Y-107.8
X141.7Y-102.0
X144.5Y-86.5
X144.5Y-91.5
X145.1Y-97.1
X146.9Y-111.4
X147.024Y-106.55
X147.5Y-108.86
X148.3Y-102.3
X149.4Y-116.55
X149.5Y-86.5
X149.5Y-91.5
X150.5Y-95.9
X153.7Y-102.3
X155.9Y-108.1
X159.8Y-87.2
X172.7Y-86.3
X174.5Y-89.8
X179.0Y-93.0
X179.0Y-102.5
X180.4Y-108.8
X182.0Y-116.5
X182.6Y-85.6
X186.0Y-105.4
X186.0Y-108.8
X186.4Y-96.6
X189.1Y-101.0
X191.0Y-133.0
X192.1Y-98.4
X193.002Y-105.4
X193.9Y-102.2
X196.6Y-133.0
X199.5Y-130.0
X201.735Y-96.665
X202.4Y-86.9
X203.8Y-100.5
T2
X118.2Y-113.935
X118.2Y-116.475
X196.68Y-113.955
X196.68Y-116.495
T3
X110.0Y-116.0
X123.0Y-116.0
X130.0Y-116.0
X131.0Y-129.0
X137.0Y-129.0
X174.0Y-129.0
X179.0Y-116.0
X179.0Y-129.0
X181.4Y-64.1
X185.0Y-116.0
X188.6Y-64.1
X191.0Y-116.0
T4
X109.92Y-81.15
X112.12Y-122.16
X112.12Y-129.26
X112.12Y-136.36
X115.0Y-81.15
X120.08Y-81.15
X124.22Y-122.16
X124.22Y-129.26
X124.22Y-136.36
X137.92Y-81.15
X138.999Y-103.645
X141.539Y-99.245
X143.0Y-81.15
X144.079Y-94.846
X148.08Y-81.15
X165.92Y-81.15
X169.861Y-94.866
X171.0Y-81.15
X172.401Y-99.265
X174.941Y-103.665
X176.08Y-81.15
X190.59Y-122.18
X190.59Y-129.28
X190.59Y-136.38
X193.92Y-81.15
X199.0Y-81.15
X202.69Y-122.18
X202.69Y-129.28
X202.69Y-136.38
X204.08Y-81.15
T0
M30
