%TF.GenerationSoftware,KiCad,Pcbnew,7.0.1*%
%TF.CreationDate,2023-11-18T18:03:43+02:00*%
%TF.ProjectId,Punainen Husse,50756e61-696e-4656-9e20-48757373652e,rev?*%
%TF.SameCoordinates,Original*%
%TF.FileFunction,Soldermask,Bot*%
%TF.FilePolarity,Negative*%
%FSLAX46Y46*%
G04 Gerber Fmt 4.6, Leading zero omitted, Abs format (unit mm)*
G04 Created by KiCad (PCBNEW 7.0.1) date 2023-11-18 18:03:43*
%MOMM*%
%LPD*%
G01*
G04 APERTURE LIST*
G04 Aperture macros list*
%AMRoundRect*
0 Rectangle with rounded corners*
0 $1 Rounding radius*
0 $2 $3 $4 $5 $6 $7 $8 $9 X,Y pos of 4 corners*
0 Add a 4 corners polygon primitive as box body*
4,1,4,$2,$3,$4,$5,$6,$7,$8,$9,$2,$3,0*
0 Add four circle primitives for the rounded corners*
1,1,$1+$1,$2,$3*
1,1,$1+$1,$4,$5*
1,1,$1+$1,$6,$7*
1,1,$1+$1,$8,$9*
0 Add four rect primitives between the rounded corners*
20,1,$1+$1,$2,$3,$4,$5,0*
20,1,$1+$1,$4,$5,$6,$7,0*
20,1,$1+$1,$6,$7,$8,$9,0*
20,1,$1+$1,$8,$9,$2,$3,0*%
G04 Aperture macros list end*
%ADD10C,2.500000*%
%ADD11RoundRect,0.250000X-0.450000X0.350000X-0.450000X-0.350000X0.450000X-0.350000X0.450000X0.350000X0*%
%ADD12RoundRect,0.237500X0.287500X0.237500X-0.287500X0.237500X-0.287500X-0.237500X0.287500X-0.237500X0*%
%ADD13RoundRect,0.250000X0.350000X0.450000X-0.350000X0.450000X-0.350000X-0.450000X0.350000X-0.450000X0*%
%ADD14RoundRect,0.250000X-0.625000X0.400000X-0.625000X-0.400000X0.625000X-0.400000X0.625000X0.400000X0*%
%ADD15RoundRect,0.250000X-0.337500X-0.475000X0.337500X-0.475000X0.337500X0.475000X-0.337500X0.475000X0*%
%ADD16RoundRect,0.250000X0.450000X-0.350000X0.450000X0.350000X-0.450000X0.350000X-0.450000X-0.350000X0*%
%ADD17RoundRect,0.250000X0.550000X-1.500000X0.550000X1.500000X-0.550000X1.500000X-0.550000X-1.500000X0*%
%ADD18RoundRect,0.150000X0.150000X-0.587500X0.150000X0.587500X-0.150000X0.587500X-0.150000X-0.587500X0*%
%ADD19RoundRect,0.250000X-0.350000X-0.450000X0.350000X-0.450000X0.350000X0.450000X-0.350000X0.450000X0*%
%ADD20RoundRect,0.250000X-0.475000X0.337500X-0.475000X-0.337500X0.475000X-0.337500X0.475000X0.337500X0*%
%ADD21RoundRect,0.250000X0.300000X-0.300000X0.300000X0.300000X-0.300000X0.300000X-0.300000X-0.300000X0*%
%ADD22RoundRect,0.150000X-0.825000X-0.150000X0.825000X-0.150000X0.825000X0.150000X-0.825000X0.150000X0*%
%ADD23RoundRect,0.225000X-0.375000X0.225000X-0.375000X-0.225000X0.375000X-0.225000X0.375000X0.225000X0*%
%ADD24RoundRect,0.250000X0.475000X-0.337500X0.475000X0.337500X-0.475000X0.337500X-0.475000X-0.337500X0*%
%ADD25R,1.800000X1.800000*%
%ADD26C,1.800000*%
%ADD27RoundRect,0.225000X-0.225000X-0.375000X0.225000X-0.375000X0.225000X0.375000X-0.225000X0.375000X0*%
%ADD28RoundRect,0.250000X0.550000X-1.050000X0.550000X1.050000X-0.550000X1.050000X-0.550000X-1.050000X0*%
%ADD29RoundRect,0.237500X-0.287500X-0.237500X0.287500X-0.237500X0.287500X0.237500X-0.287500X0.237500X0*%
%ADD30RoundRect,0.150000X0.587500X0.150000X-0.587500X0.150000X-0.587500X-0.150000X0.587500X-0.150000X0*%
%ADD31RoundRect,0.250000X1.050000X0.550000X-1.050000X0.550000X-1.050000X-0.550000X1.050000X-0.550000X0*%
%ADD32RoundRect,0.150000X-0.850000X-0.150000X0.850000X-0.150000X0.850000X0.150000X-0.850000X0.150000X0*%
G04 APERTURE END LIST*
D10*
%TO.C,TP6*%
X179000000Y-116000000D03*
%TD*%
%TO.C,TP1*%
X174000000Y-129000000D03*
%TD*%
%TO.C,TP9*%
X130000000Y-116000000D03*
%TD*%
%TO.C,TP10*%
X110000000Y-116000000D03*
%TD*%
%TO.C,TP12*%
X188600000Y-64100000D03*
%TD*%
%TO.C,TP2*%
X131000000Y-129000000D03*
%TD*%
%TO.C,TP8*%
X123000000Y-116000000D03*
%TD*%
%TO.C,TP5*%
X185000000Y-116000000D03*
%TD*%
%TO.C,TP7*%
X191000000Y-116000000D03*
%TD*%
%TO.C,TP3*%
X137000000Y-129000000D03*
%TD*%
%TO.C,TP4*%
X179000000Y-129000000D03*
%TD*%
%TO.C,TP11*%
X181400000Y-64100000D03*
%TD*%
D11*
%TO.C,R27*%
X137900000Y-109200000D03*
X137900000Y-111200000D03*
%TD*%
D12*
%TO.C,LED2*%
X113275000Y-99200000D03*
X111525000Y-99200000D03*
%TD*%
D13*
%TO.C,R4*%
X189500000Y-105400000D03*
X187500000Y-105400000D03*
%TD*%
D14*
%TO.C,R22*%
X188600000Y-68350000D03*
X188600000Y-71450000D03*
%TD*%
D15*
%TO.C,C2*%
X181962500Y-105400000D03*
X184037500Y-105400000D03*
%TD*%
D13*
%TO.C,R7*%
X199877976Y-88100000D03*
X197877976Y-88100000D03*
%TD*%
D16*
%TO.C,R10*%
X117400000Y-92600000D03*
X117400000Y-90600000D03*
%TD*%
D17*
%TO.C,C20*%
X165600000Y-71400000D03*
X165600000Y-65800000D03*
%TD*%
D16*
%TO.C,R17*%
X161600000Y-89600000D03*
X161600000Y-87600000D03*
%TD*%
D10*
%TO.C,Rv3*%
X176080000Y-81150000D03*
X171000000Y-81150000D03*
X165920000Y-81150000D03*
%TD*%
D13*
%TO.C,R21*%
X122500000Y-71600000D03*
X120500000Y-71600000D03*
%TD*%
D18*
%TO.C,Q1*%
X172250000Y-89575000D03*
X170350000Y-89575000D03*
X171300000Y-87700000D03*
%TD*%
D19*
%TO.C,R8*%
X123300000Y-102600000D03*
X125300000Y-102600000D03*
%TD*%
%TO.C,R16*%
X123300000Y-105600000D03*
X125300000Y-105600000D03*
%TD*%
D20*
%TO.C,C12*%
X179100000Y-87662500D03*
X179100000Y-89737500D03*
%TD*%
D19*
%TO.C,R6*%
X197877976Y-90700000D03*
X199877976Y-90700000D03*
%TD*%
D10*
%TO.C,SW2*%
X112120000Y-136360000D03*
X112120000Y-129260000D03*
X112120000Y-122160000D03*
X124220000Y-122160000D03*
X124220000Y-129260000D03*
X124220000Y-136360000D03*
%TD*%
D16*
%TO.C,R12*%
X121200000Y-92600000D03*
X121200000Y-90600000D03*
%TD*%
D21*
%TO.C,D6*%
X183200000Y-71400000D03*
X183200000Y-68600000D03*
%TD*%
D19*
%TO.C,R2*%
X182000000Y-109900000D03*
X184000000Y-109900000D03*
%TD*%
D22*
%TO.C,U1*%
X144425000Y-115210000D03*
X144425000Y-113940000D03*
X144425000Y-112670000D03*
X144425000Y-111400000D03*
X144425000Y-110130000D03*
X144425000Y-108860000D03*
X144425000Y-107590000D03*
X149375000Y-107590000D03*
X149375000Y-108860000D03*
X149375000Y-110130000D03*
X149375000Y-111400000D03*
X149375000Y-112670000D03*
X149375000Y-113940000D03*
X149375000Y-115210000D03*
%TD*%
D23*
%TO.C,D3*%
X153500000Y-111950000D03*
X153500000Y-115250000D03*
%TD*%
D24*
%TO.C,C8*%
X182000000Y-102237500D03*
X182000000Y-100162500D03*
%TD*%
D25*
%TO.C,LED8*%
X118200000Y-116475000D03*
D26*
X118200000Y-113935000D03*
%TD*%
D16*
%TO.C,R11*%
X156200000Y-100900000D03*
X156200000Y-98900000D03*
%TD*%
D10*
%TO.C,SW1*%
X190590000Y-136380000D03*
X190590000Y-129280000D03*
X190590000Y-122180000D03*
X202690000Y-122180000D03*
X202690000Y-129280000D03*
X202690000Y-136380000D03*
%TD*%
%TO.C,Rv6*%
X120080000Y-81150000D03*
X115000000Y-81150000D03*
X109920000Y-81150000D03*
%TD*%
D15*
%TO.C,C1*%
X181962500Y-107700000D03*
X184037500Y-107700000D03*
%TD*%
D27*
%TO.C,D2*%
X148250000Y-104400000D03*
X151550000Y-104400000D03*
%TD*%
%TO.C,D1*%
X142500000Y-104400000D03*
X145800000Y-104400000D03*
%TD*%
D28*
%TO.C,C14*%
X165900000Y-89600000D03*
X165900000Y-86000000D03*
%TD*%
D17*
%TO.C,C19*%
X173600000Y-71400000D03*
X173600000Y-65800000D03*
%TD*%
D15*
%TO.C,C9*%
X127262500Y-74300000D03*
X129337500Y-74300000D03*
%TD*%
D10*
%TO.C,Rv5*%
X148080000Y-81150000D03*
X143000000Y-81150000D03*
X137920000Y-81150000D03*
%TD*%
%TO.C,Rv4*%
X144078684Y-94845885D03*
X141538684Y-99245294D03*
X138998684Y-103644703D03*
%TD*%
%TO.C,Rv2*%
X174941316Y-103664703D03*
X172401316Y-99265294D03*
X169861316Y-94865885D03*
%TD*%
D11*
%TO.C,R9*%
X148000000Y-98800000D03*
X148000000Y-100800000D03*
%TD*%
D19*
%TO.C,R20*%
X127400000Y-80400000D03*
X129400000Y-80400000D03*
%TD*%
D29*
%TO.C,LED3*%
X111525000Y-96900000D03*
X113275000Y-96900000D03*
%TD*%
D11*
%TO.C,R25*%
X138300000Y-90000000D03*
X138300000Y-92000000D03*
%TD*%
%TO.C,R15*%
X176200000Y-87700000D03*
X176200000Y-89700000D03*
%TD*%
%TO.C,R26*%
X138300000Y-95200000D03*
X138300000Y-97200000D03*
%TD*%
D20*
%TO.C,C7*%
X153700000Y-98862500D03*
X153700000Y-100937500D03*
%TD*%
D24*
%TO.C,C4*%
X202400000Y-90637500D03*
X202400000Y-88562500D03*
%TD*%
D19*
%TO.C,R5*%
X187500000Y-107700000D03*
X189500000Y-107700000D03*
%TD*%
D24*
%TO.C,C6*%
X121200000Y-96675000D03*
X121200000Y-94600000D03*
%TD*%
D25*
%TO.C,LED7*%
X196680000Y-116495000D03*
D26*
X196680000Y-113955000D03*
%TD*%
D19*
%TO.C,R3*%
X111300000Y-102000000D03*
X113300000Y-102000000D03*
%TD*%
D24*
%TO.C,C22*%
X140200000Y-111237500D03*
X140200000Y-109162500D03*
%TD*%
D19*
%TO.C,R1*%
X111300000Y-104800000D03*
X113300000Y-104800000D03*
%TD*%
%TO.C,R18*%
X123300000Y-99700000D03*
X125300000Y-99700000D03*
%TD*%
D15*
%TO.C,C10*%
X153825000Y-106500000D03*
X155900000Y-106500000D03*
%TD*%
D13*
%TO.C,R19*%
X129300000Y-77400000D03*
X127300000Y-77400000D03*
%TD*%
D20*
%TO.C,C21*%
X133300000Y-109162500D03*
X133300000Y-111237500D03*
%TD*%
D15*
%TO.C,C3*%
X128062500Y-102600000D03*
X130137500Y-102600000D03*
%TD*%
D30*
%TO.C,Q2*%
X134875000Y-98750000D03*
X134875000Y-100650000D03*
X133000000Y-99700000D03*
%TD*%
D16*
%TO.C,R14*%
X182000000Y-96600000D03*
X182000000Y-94600000D03*
%TD*%
D31*
%TO.C,C15*%
X113520000Y-71600000D03*
X109920000Y-71600000D03*
%TD*%
D16*
%TO.C,R28*%
X135600000Y-111200000D03*
X135600000Y-109200000D03*
%TD*%
D32*
%TO.C,U3*%
X125297500Y-96350000D03*
X125297500Y-95080000D03*
X125297500Y-93810000D03*
X125297500Y-92540000D03*
X125297500Y-91270000D03*
X125297500Y-90000000D03*
X125297500Y-88730000D03*
X125297500Y-87460000D03*
X130297500Y-87460000D03*
X130297500Y-88730000D03*
X130297500Y-90000000D03*
X130297500Y-91270000D03*
X130297500Y-92540000D03*
X130297500Y-93810000D03*
X130297500Y-95080000D03*
X130297500Y-96350000D03*
%TD*%
D20*
%TO.C,C23*%
X133700000Y-89962500D03*
X133700000Y-92037500D03*
%TD*%
D11*
%TO.C,R13*%
X150900000Y-98800000D03*
X150900000Y-100800000D03*
%TD*%
D10*
%TO.C,Rv1*%
X204080000Y-81150000D03*
X199000000Y-81150000D03*
X193920000Y-81150000D03*
%TD*%
D24*
%TO.C,C11*%
X182000000Y-89737500D03*
X182000000Y-87662500D03*
%TD*%
M02*
